# xmcd
#
# Track frame offsets:
#	150
#	13840
#	30205
#	42309
#	64670
#	90207
#	109923
#	132377
#	154110
#	172729
#	195610
#	207223
#	231112
#	243540
#	256154
#	274552
#
# Disc length: 4010 seconds
#
# Revision: 2
# Processed by: cddbd v1.5.2PL0 Copyright (c) Steve Scherf et al.
# Submitted via: audiograbber 1.83.01
#
DISCID=c80fa810
DTITLE=Bob Dylan - The Bootleg Series Vol. 13 1979-1981 Deluxe Edition: Trouble
DTITLE=No More [CD 3) - Rare And Unreleased
DYEAR=2017
DGENRE=Rock
TTITLE0=Slow Train [sound check - Largo, MD, Oct. 5, 1978]
TTITLE1=Do Right To Me Baby (Do Unto Others) [sound check - Greensboro, NC, Dec
TTITLE1=7, 1978]
TTITLE2=Help Me Understand [sound check - Largo, MD, Oct. 5, 1978]
TTITLE3=Gonna Change My Way Of Thinking [rehearsal with horns - Oct. 2, 1979]
TTITLE4=Gotta Serve Somebody [Take 1 - Slow Train Coming studio outtake - May 4
TTITLE4=, 1979]
TTITLE5=When He Returns [Take 2 - Slow Train Coming studio outtake - May 4, 197
TTITLE5=9]
TTITLE6=Ain't No Man Righteous, No Not One [Take 6 - Slow Train Coming studio o
TTITLE6=uttake - May 1, 1979]
TTITLE7=Trouble In Mind [Take 1 - B-side studio outtake - Apr. 30, 1979]
TTITLE8=Ye Shall Be Changed [Slow Train Coming studio outtake - May 2, 1979]
TTITLE9=Covenant Woman [Take 3 - Saved studio outtake - Feb. 11, 1980]
TTITLE10=Stand By Faith [rehearsal - Sep. 26, 1979]
TTITLE11=I Will Love Him [live - Toronto, Canada - Apr. 19, 1980]
TTITLE12=Jesus Is The One [live - Lorelei, Germany - Jul. 17, 1981]
TTITLE13=City Of Gold [live - San Francisco, CA - Nov. 22, 1980]
TTITLE14=Thief On The Cross [live - New Orleans, LA - Nov. 10, 1981]
TTITLE15=Pressing On [Take 1 - Saved studio outtake - Feb. 13, 1980]
EXTD=
EXTT0=
EXTT1=
EXTT2=
EXTT3=
EXTT4=
EXTT5=
EXTT6=
EXTT7=
EXTT8=
EXTT9=
EXTT10=
EXTT11=
EXTT12=
EXTT13=
EXTT14=
EXTT15=
PLAYORDER=
